<svg width="33" height="33" viewBox="0 0 33 33" fill="none" xmlns="http://www.w3.org/2000/svg">
<mask id="mask0_211_7" style="mask-type:alpha" maskUnits="userSpaceOnUse" x="0" y="0" width="33" height="33">
<rect x="0.5" y="0.5" width="32.5" height="32.5" fill="#D9D9D9"/>
</mask>
<g mask="url(#mask0_211_7)">
<path d="M16.75 30.2917C14.8767 30.2917 13.1163 29.9362 11.4688 29.2253C9.82118 28.5143 8.38802 27.5495 7.16927 26.3307C5.95052 25.112 4.98568 23.6788 4.27474 22.0313C3.5638 20.3837 3.20833 18.6233 3.20833 16.75C3.20833 14.8767 3.5638 13.1163 4.27474 11.4688C4.98568 9.82118 5.95052 8.38802 7.16927 7.16927C8.38802 5.95052 9.82118 4.98568 11.4688 4.27474C13.1163 3.5638 14.8767 3.20833 16.75 3.20833C18.6233 3.20833 20.3837 3.5638 22.0313 4.27474C23.6788 4.98568 25.112 5.95052 26.3307 7.16927C27.5495 8.38802 28.5143 9.82118 29.2253 11.4688C29.9362 13.1163 30.2917 14.8767 30.2917 16.75C30.2917 18.6233 29.9362 20.3837 29.2253 22.0313C28.5143 23.6788 27.5495 25.112 26.3307 26.3307C25.112 27.5495 23.6788 28.5143 22.0313 29.2253C20.3837 29.9362 18.6233 30.2917 16.75 30.2917ZM15.3958 27.5156V24.875C14.651 24.875 14.0135 24.6098 13.4831 24.0794C12.9527 23.549 12.6875 22.9115 12.6875 22.1667V20.8125L6.1875 14.3125C6.11979 14.7188 6.05773 15.125 6.0013 15.5313C5.94488 15.9375 5.91667 16.3438 5.91667 16.75C5.91667 19.4809 6.8138 21.8733 8.60807 23.9271C10.4023 25.9809 12.6649 27.1771 15.3958 27.5156ZM24.7396 24.0625C25.191 23.566 25.5972 23.0299 25.9583 22.4544C26.3194 21.8789 26.6185 21.2808 26.8555 20.6602C27.0924 20.0395 27.273 19.4019 27.3971 18.7474C27.5213 18.0929 27.5833 17.4271 27.5833 16.75C27.5833 14.5382 26.9683 12.5182 25.7383 10.6901C24.5082 8.86198 22.8663 7.54167 20.8125 6.72917V7.27083C20.8125 8.01562 20.5473 8.65321 20.0169 9.18359C19.4865 9.71398 18.849 9.97917 18.1042 9.97917H15.3958V12.6875C15.3958 13.0712 15.2661 13.3928 15.0065 13.6523C14.747 13.9119 14.4253 14.0417 14.0417 14.0417H11.3333V16.75H19.4583C19.842 16.75 20.1636 16.8798 20.4232 17.1393C20.6827 17.3989 20.8125 17.7205 20.8125 18.1042V22.1667H22.1667C22.7535 22.1667 23.2839 22.3416 23.7578 22.6914C24.2318 23.0412 24.559 23.4983 24.7396 24.0625Z" fill="#FCF9BF"/>
</g>
</svg>
